<svg width="349" height="77" viewBox="0 0 349 77" fill="none" xmlns="http://www.w3.org/2000/svg">
<path d="M5.24186 9.19626C5.24186 8.34103 6.24677 2.93533 6.31622 5.45533C6.74133 20.8788 4.74982 36.1746 4.89341 51.6023C5.06427 69.9583 17.6796 68.1771 26.1614 56.4297C36.608 41.9611 40.988 27.5795 45.3645 10.5816C46.39 6.59847 42.0225 27.0039 41.5026 30.5445C40.3323 38.5142 36.1417 66.4486 50.554 66.0289C62.5314 65.68 74.4486 37.7293 77.8649 28.6595C78.8224 26.1176 81.8165 19.9929 80.5379 17.0895C80.4772 16.9516 79.4116 16.772 80.4476 16.4482" stroke="#1E1E1E" stroke-width="8" stroke-linecap="round" stroke-linejoin="round"/>
<path d="M65.7259 56.6717C64.819 56.6717 63.023 58.059 63.1706 59.0189C64.4368 67.2492 91.0563 53.784 92.7077 52.8098C93.7565 52.1911 119.416 35.6963 116.641 34.2721C110.238 30.9868 95.6494 38.7933 91.0348 42.7086C82.9691 49.552 82.8539 66.2854 95.1032 68.5285C109.042 71.0808 122.888 55.794 128.249 44.4108C132.473 35.44 126.505 40.9727 124.403 46.1664C122.867 49.9616 112.573 77.1786 125.965 69.039C135.849 63.0314 151.601 47.9293 152.811 35.6344C153.599 27.631 145.623 50.5754 145.468 58.616C145.147 75.2128 166.902 54.0598 170.385 49.8771C176.818 42.1494 182.78 33.5561 187.326 24.5713C190.155 18.9811 194.574 1.33541 195.311 7.55689C196.249 15.4647 189.991 28.7724 187.92 36.3337C185.52 45.0924 183.561 53.9706 181.141 62.7187C180.979 63.3041 176.859 73.8381 176.299 72.8574C173.995 68.8258 180.361 29.0793 184.11 29.0793" stroke="#1E1E1E" stroke-width="8" stroke-linecap="round" stroke-linejoin="round"/>
<path d="M168.952 30.7127C168.952 37.9812 210.319 25.5558 214.715 24.506" stroke="#1E1E1E" stroke-width="8" stroke-linecap="round" stroke-linejoin="round"/>
<path d="M228.594 10.1327C228.594 3.37288 225.973 23.4094 224.16 29.9214C220.532 42.9476 209.99 81.9672 215.179 69.4806C218.332 61.8939 235.869 24.7355 247.72 33.5752C253.781 38.0968 244.132 68.6001 245.697 68.7087C250.913 69.071 261.189 54.0308 266.094 50.6381C271.139 47.1481 276.6 44.8338 282.074 42.1786C297.872 34.5158 287.052 15.7489 278.012 30.628C273.556 37.9623 266.787 59.3746 278.567 62.8905C290.932 66.5811 299.911 55.9248 307.117 47.6678C309.626 44.7921 319.024 31.75 318.377 33.2582C317.297 35.7742 312.934 47.5823 317.357 47.9969C328.954 49.0841 346.657 14.777 344.719 26.2627C342.56 39.0633 319.528 58.9074 340.328 68.3663" stroke="#1E1E1E" stroke-width="8" stroke-linecap="round" stroke-linejoin="round"/>
</svg>
